<svg xmlns="http://www.w3.org/2000/svg" width="122.55" height="35" viewBox="0 0 122.55 35"><rect class="svg__rect" x="0" y="0" width="122.55" height="35" fill="#47C2E9" style="--darkreader-inline-fill: #0a85ac;" data-darkreader-inline-fill=""/><rect class="svg__rect" x="122.55" y="0" width="0" height="35" fill="#389AD5" style="--darkreader-inline-fill: #2272a2;" data-darkreader-inline-fill=""/><path class="svg__text" d="M15.70 22L14.22 22L14.22 13.47L17.22 13.47Q18.69 13.47 19.50 14.13Q20.30 14.79 20.30 16.05L20.30 16.05Q20.30 16.90 19.89 17.48Q19.47 18.06 18.73 18.37L18.73 18.37L20.65 21.92L20.65 22L19.06 22L17.35 18.71L15.70 18.71L15.70 22ZM15.70 14.66L15.70 17.52L17.22 17.52Q17.97 17.52 18.39 17.15Q18.82 16.77 18.82 16.11L18.82 16.11Q18.82 15.43 18.43 15.05Q18.04 14.68 17.26 14.66L17.26 14.66L15.70 14.66ZM30.27 22L24.69 22L24.69 13.47L30.23 13.47L30.23 14.66L26.18 14.66L26.18 17.02L29.68 17.02L29.68 18.19L26.18 18.19L26.18 20.82L30.27 20.82L30.27 22ZM36.76 22L33.71 13.47L35.33 13.47L37.47 20.14L39.64 13.47L41.27 13.47L38.20 22L36.76 22ZM44.95 18.00L44.95 18.00L44.95 17.52Q44.95 16.28 45.39 15.32Q45.83 14.37 46.64 13.86Q47.45 13.35 48.49 13.35Q49.53 13.35 50.34 13.85Q51.14 14.35 51.58 15.29Q52.02 16.23 52.03 17.48L52.03 17.48L52.03 17.96Q52.03 19.21 51.59 20.16Q51.16 21.10 50.35 21.61Q49.55 22.12 48.50 22.12L48.50 22.12Q47.46 22.12 46.65 21.61Q45.84 21.10 45.40 20.17Q44.96 19.23 44.95 18.00ZM46.43 17.46L46.43 17.96Q46.43 19.36 46.98 20.13Q47.53 20.90 48.50 20.90L48.50 20.90Q49.48 20.90 50.02 20.15Q50.55 19.40 50.55 17.96L50.55 17.96L50.55 17.51Q50.55 16.09 50.01 15.34Q49.47 14.58 48.49 14.58L48.49 14.58Q47.53 14.58 46.99 15.33Q46.44 16.09 46.43 17.46L46.43 17.46ZM61.85 22L56.49 22L56.49 13.47L57.98 13.47L57.98 20.82L61.85 20.82L61.85 22ZM65.84 19.16L65.84 19.16L65.84 13.47L67.31 13.47L67.31 19.18Q67.31 20.03 67.75 20.48Q68.18 20.93 69.03 20.93L69.03 20.93Q70.74 20.93 70.74 19.13L70.74 19.13L70.74 13.47L72.21 13.47L72.21 19.17Q72.21 20.53 71.34 21.32Q70.47 22.12 69.03 22.12L69.03 22.12Q67.56 22.12 66.70 21.33Q65.84 20.55 65.84 19.16ZM78.47 14.66L75.83 14.66L75.83 13.47L82.60 13.47L82.60 14.66L79.94 14.66L79.94 22L78.47 22L78.47 14.66ZM87.92 22L86.44 22L86.44 13.47L87.92 13.47L87.92 22ZM92.46 18.00L92.46 18.00L92.46 17.52Q92.46 16.28 92.90 15.32Q93.34 14.37 94.15 13.86Q94.95 13.35 96.00 13.35Q97.04 13.35 97.85 13.85Q98.65 14.35 99.09 15.29Q99.53 16.23 99.54 17.48L99.54 17.48L99.54 17.96Q99.54 19.21 99.10 20.16Q98.67 21.10 97.86 21.61Q97.06 22.12 96.01 22.12L96.01 22.12Q94.97 22.12 94.16 21.61Q93.35 21.10 92.91 20.17Q92.46 19.23 92.46 18.00ZM93.94 17.46L93.94 17.96Q93.94 19.36 94.49 20.13Q95.04 20.90 96.01 20.90L96.01 20.90Q96.99 20.90 97.52 20.15Q98.05 19.40 98.05 17.96L98.05 17.96L98.05 17.51Q98.05 16.09 97.52 15.34Q96.98 14.58 96.00 14.58L96.00 14.58Q95.04 14.58 94.49 15.33Q93.95 16.09 93.94 17.46L93.94 17.46ZM105.48 22L104.00 22L104.00 13.47L105.48 13.47L109.30 19.54L109.30 13.47L110.77 13.47L110.77 22L109.29 22L105.48 15.95L105.48 22Z" fill="#FFFFFF" style="--darkreader-inline-fill: #181a1b;" data-darkreader-inline-fill=""/><path class="svg__text" d="" fill="#FFFFFF" x="135.55" style="--darkreader-inline-fill: #181a1b;" data-darkreader-inline-fill=""/></svg>